<svg width="41" height="30" viewBox="0 0 41 30" fill="none" xmlns="http://www.w3.org/2000/svg">
<path d="M15.7612 2.38351e-05L32.8875 29.1206H38.7153C39.1754 29.1173 39.5513 29.0501 39.8253 28.9143C40.1138 28.7715 40.3046 28.5642 40.4088 28.3124C40.6147 27.8145 40.4744 27.14 40.0922 26.4423L38.2422 23.324L35.6468 24.8224L34.6619 23.116L37.2372 21.6287L35.4829 18.6707L32.9409 20.1377L31.9561 18.4295L34.4761 16.9753L32.7218 14.0173L30.2368 15.4512L29.2502 13.7448L31.7168 12.3219L29.9607 9.362L27.5309 10.7646L26.5443 9.05828L28.9556 7.66663L27.1996 4.70675L24.825 6.07807L23.8402 4.37172L26.1946 3.01328L24.4072 -3.05176e-05L15.7612 2.38351e-05Z" fill="#ACE6E1"/>
<path d="M9.15108 11.2635L0.413076 26.4386C0.030151 27.1371 -0.11156 27.8122 0.0946505 28.3106C0.198876 28.5625 0.389645 28.7696 0.678154 28.9126C0.954427 29.0494 1.33357 29.1185 1.79918 29.1206H7.59016L17.7584 11.2635H9.15108Z" fill="#2597AC"/>
<path d="M11.8767 21.5901L7.5896 29.1206H32.8869L28.4581 21.5901H11.8767Z" fill="#49D1CD"/>
</svg>
