<svg width="27" height="41" viewBox="0 0 27 41" fill="none" xmlns="http://www.w3.org/2000/svg">
<path fill-rule="evenodd" clip-rule="evenodd" d="M20.6499 8.82C20.5999 8.63 20.5299 8.45 20.4599 8.27C19.8799 7.54 19.3699 6.75 18.6999 6.1C17.9799 5.41 17.1199 4.87 16.5699 4.04C15.6899 5.88 14.6399 7.58 12.8199 8.66C12.5999 8.79 12.3599 8.74 12.1999 8.59C12.0799 8.66 11.9699 8.73 11.8499 8.8C11.8199 8.81 11.7999 8.82 11.7699 8.83C11.7299 8.92 11.6799 9 11.5899 9.07C11.1999 9.37 10.8099 9.56 10.3699 9.7C9.51991 10.1 8.62991 10.43 7.75991 10.8C7.61991 10.86 7.46991 10.92 7.32991 10.98C7.13991 11.06 6.94991 11.15 6.75991 11.24C6.64991 11.29 6.54991 11.3 6.44991 11.29C6.41991 11.3 6.38991 11.32 6.35991 11.33C6.23991 11.39 6.12991 11.4 6.01991 11.38C5.82991 12.22 5.80991 13.09 5.80991 13.97C5.80991 14.09 5.76991 14.19 5.70991 14.28C5.58991 15.24 6.14991 16.44 6.64991 17.19C7.02991 17.76 6.11991 18.3 5.73991 17.73C5.20991 16.94 4.72991 15.85 4.64991 14.82C4.59991 14.8 4.54991 14.79 4.48991 14.79C4.24991 14.79 3.94991 14.99 3.78991 15.25C3.69991 15.4 3.67991 15.54 3.71991 15.64L3.74991 15.7L3.68991 15.73C3.56991 15.8 3.56991 15.94 3.57991 16.26C3.57991 16.35 3.57991 16.45 3.57991 16.54L3.63991 16.71C3.94991 17.64 4.23991 18.53 5.13991 18.73H5.16991L5.18991 18.77C5.32991 19.03 5.66991 19.11 6.00991 19.17L6.13991 19.19C6.58991 19.26 6.96991 19.32 7.10991 19.88C7.28991 19.91 7.37991 20.05 7.45991 20.18C7.49991 20.21 7.53991 20.24 7.56991 20.28C7.66991 20.41 7.75991 20.53 7.84991 20.64C7.93991 20.74 8.03991 20.83 8.13991 20.93L8.20991 21C8.27991 21.06 8.31991 21.14 8.34991 21.22L8.36991 21.26C8.46991 21.46 8.58991 21.63 8.70991 21.8C8.86991 22.03 9.03991 22.27 9.15991 22.57C9.16991 22.55 9.18991 22.53 9.20991 22.51L9.27991 22.46L9.30991 22.55C9.34991 22.66 9.39991 22.78 9.44991 22.9C9.92991 24.12 10.5399 25.64 9.97991 27.14C9.97991 27.18 9.97991 27.22 9.95991 27.25C9.91991 27.39 9.86991 27.51 9.80991 27.63C11.7599 28.31 14.1699 28.15 16.2399 27.65C16.2399 27.54 16.2399 27.43 16.2699 27.31C15.8499 26.53 16.0699 25.18 16.3399 24.51C16.4599 23.78 16.7299 23.15 17.1599 22.59C17.1399 22.09 17.3899 21.84 17.6299 21.61C17.7299 21.52 17.8099 21.43 17.8899 21.32L17.9399 21.29C18.0099 21.19 18.0899 21.09 18.1799 20.97C18.1999 20.94 18.2299 20.92 18.2499 20.89L18.3099 20.78C17.7699 20.63 17.4199 20.24 17.2199 19.72C17.2099 19.68 17.1899 19.64 17.1799 19.6C17.0299 19.65 16.8499 19.64 16.7099 19.57C15.5099 18.94 15.0099 17.93 14.4599 16.76C14.1699 16.15 15.0799 15.6 15.3699 16.22C15.5699 16.64 15.7499 17.04 15.9599 17.41C16.0399 17.35 16.1499 17.31 16.2499 17.29C16.4099 17.16 16.6499 17.11 16.8599 17.21C17.3799 17.45 17.7099 17.89 17.8999 18.42C18.0499 18.85 18.0999 19.66 18.6199 19.79C18.7199 19.82 18.7999 19.86 18.8599 19.92C18.9799 19.72 19.1099 19.52 19.2399 19.32C19.6299 18.71 20.0399 18.09 20.2999 17.35V17.32C20.0599 17.25 19.8599 17.02 19.9699 16.7C20.4299 15.28 20.8699 13.86 21.1999 12.41C21.2399 12.24 21.3399 12.13 21.4599 12.07C21.4199 10.96 21.1399 9.88 20.6299 8.84L20.6499 8.82ZM12.5199 17.15C12.4099 17.19 12.3199 17.25 12.2399 17.32C12.1499 17.52 12.0299 17.7 11.8599 17.85C11.8699 17.95 11.8599 18.05 11.7999 18.15C11.6099 18.48 11.3299 18.77 10.9899 18.94C10.7799 19.11 10.5599 19.28 10.3399 19.44C10.3299 19.46 10.3199 19.47 10.3099 19.49C9.89991 20.03 9.27991 20.24 8.78991 20.67C8.28991 21.12 7.53991 20.41 8.02991 19.93C8.46991 19.51 8.95991 19.15 9.44991 18.8C9.53991 18.7 9.61991 18.58 9.69991 18.46C9.69991 18.41 9.69991 18.35 9.72991 18.29C9.74991 18.25 9.75991 18.2 9.77991 18.16C9.77991 18.16 9.77991 18.16 9.77991 18.15C9.89991 17.88 10.0499 17.67 10.2499 17.48C10.3399 17.35 10.4399 17.23 10.5599 17.11C10.7899 16.84 11.0499 16.59 11.3399 16.36C11.5199 16.21 11.7399 16.2 11.9199 16.27C12.0199 16.22 12.1199 16.17 12.2299 16.13C12.8699 15.89 13.1599 16.91 12.5199 17.15Z" fill="#E9C3C3"/>
<path fill-rule="evenodd" clip-rule="evenodd" d="M5.93004 32.62C6.03004 32.64 6.11004 32.68 6.17004 32.75C6.85004 32.79 7.70004 32.84 8.43004 32.9C9.48004 32.98 10.52 32.79 11.58 32.87C12.17 32.92 12.81 33.09 13.4 33.08C13.44 33.08 13.53 32.97 13.59 32.98C15.16 33.08 16.7 33.12 18.32 33.26C18.5 33.32 18.41 33.13 18.55 33.15C19.05 33.23 19.71 33.3 20.32 33.36C20.72 33.4 21.17 33.25 21.47 33.47C21.52 33.45 21.56 33.43 21.61 33.42C21.66 33.39 21.72 33.36 21.79 33.35C21.79 33.35 21.8 33.35 21.81 33.36C22.02 33.31 22.23 33.28 22.45 33.28C22.39 33.15 22.33 33.02 22.25 32.9C21.67 33.05 21.44 32.52 21.13 32.23C20.99 32.23 20.84 32.24 20.7 32.25C20.28 31.97 19.94 31.61 19.38 31.49C19.18 31.49 18.97 31.49 18.77 31.48C18.79 31.49 18.81 31.5 18.82 31.52C15.74 31.54 11.95 30.89 8.36004 30.76C8.16004 30.76 7.96004 30.76 7.76004 30.75C7.57004 30.91 7.39004 31.07 7.21004 31.23C7.17004 31.1 6.79004 31.37 6.63004 31.16C6.48004 31.34 6.62004 31.64 6.56004 31.83C6.19004 31.89 6.10004 32.2 5.72004 32.25C5.74004 32.36 5.64004 32.36 5.68004 32.49C5.63004 32.52 5.59004 32.55 5.54004 32.58C5.67004 32.58 5.79004 32.6 5.92004 32.63L5.93004 32.62ZM18.52 32.3C18.47 32.17 18.26 32.22 18.09 32.22C17.95 32.19 18.63 32.03 18.52 32.3ZM16.54 32.76C16.46 32.9 15.88 32.76 15.59 32.8C15.81 32.51 16.21 32.84 16.54 32.76ZM14.2 32.66C14.65 32.73 15.23 32.5 15.49 32.8C14.97 32.68 13.95 32.71 13.01 32.71C13.28 32.46 13.95 32.62 14.2 32.66ZM12.96 32.62C12.92 32.88 12.76 32.58 12.63 32.63C12.63 32.55 12.95 32.54 12.96 32.62ZM10.85 31.23C10.79 31.42 9.90004 31.19 9.90004 31.32C9.87004 31.07 10.55 31.19 10.85 31.23ZM7.83004 31.97C7.59004 32.06 7.03004 32.08 6.78004 32.01C6.92004 31.73 7.60004 31.78 7.83004 31.97Z" fill="#32428E"/>
<path fill-rule="evenodd" clip-rule="evenodd" d="M25.5199 36.87C25.4499 36.77 25.2599 36.63 25.3599 36.4C25.1899 36.31 25.0699 36.19 25.0999 35.89C24.9099 35.9 24.9099 35.7 24.7599 35.67C24.7299 35.61 24.6899 35.56 24.6499 35.51C24.4399 35.5 24.2199 35.48 24.0099 35.5C23.6799 35.53 23.3599 35.53 23.0399 35.44C21.9199 35.47 20.7999 35.23 19.9699 35.29C19.7399 35.02 19.0099 35.31 18.7699 35.05C18.7199 35.06 18.7399 35.15 18.6799 35.15C16.3499 35.03 14.2499 34.93 12.0299 34.75C10.7699 34.65 9.35991 34.79 8.20991 34.71C6.55991 34.6 4.99991 34.71 3.52991 34.52C3.54991 34.49 3.57991 34.47 3.59991 34.45C3.46991 34.46 3.33991 34.47 3.20991 34.46C3.18991 34.46 3.16991 34.46 3.13991 34.46C3.10991 34.46 3.06991 34.46 3.03991 34.45C2.99991 34.47 2.94991 34.49 2.90991 34.5C2.83991 35.07 2.48991 35.39 2.04991 35.63C2.01991 35.79 1.96991 35.94 1.90991 36.08C1.98991 36.08 2.06991 36.08 2.14991 36.08C2.28991 36.08 2.41991 36.08 2.55991 36.11C2.55991 36.1 2.57991 36.09 2.58991 36.07C3.41991 36.38 5.40991 36.22 6.41991 36.39C7.47991 36.25 10.0899 36.38 10.9499 36.3C11.1699 36.28 11.7199 36.44 12.0099 36.45C12.4099 36.46 12.8099 36.39 13.1499 36.4C13.4899 36.42 13.8099 36.53 14.1599 36.55C14.6499 36.57 15.1699 36.46 15.6799 36.49C16.2899 36.52 16.9099 36.66 17.5499 36.7C19.0099 36.78 20.5499 36.66 21.7199 37.1C22.9599 37.1 23.9299 37.41 25.0899 37.51C25.1299 37.5 25.1799 37.49 25.2199 37.49C25.3599 37.49 25.4999 37.51 25.6299 37.53C25.5999 37.45 25.5699 37.37 25.5399 37.28C25.4999 37.15 25.6099 36.98 25.5199 36.85V36.87ZM10.7199 35.42C9.98991 35.52 8.74991 35.38 7.89991 35.3C8.64991 35.15 9.81991 35.4 10.7199 35.42ZM3.79991 35.27C3.74991 35.38 3.30991 35.39 2.89991 35.4C2.87991 35.26 2.99991 35.25 2.97991 35.11C3.23991 35.39 3.65991 35.19 4.12991 35.21C4.14991 35.39 3.84991 35.41 3.79991 35.27ZM4.00991 35.74C4.11991 35.76 4.06991 35.65 4.14991 35.64C6.46991 35.66 9.11991 35.59 11.0399 36.03C8.80991 35.89 6.13991 35.76 4.01991 35.74H4.00991ZM11.3299 35.06C11.7799 35.16 12.1999 35 12.5799 35.2C12.7099 35.2 12.8299 35.19 12.9599 35.18C13.1799 35.15 13.0799 35.26 12.9099 35.23C12.3299 35.27 11.8199 35.23 11.3299 35.06ZM12.3299 36.07C12.4299 35.92 13.1799 36.02 13.2799 36.03C13.1699 36.2 12.6899 35.95 12.3299 36.07ZM13.3299 36.03C13.4899 36.07 13.8399 35.9 13.8599 36.1C13.6999 36.06 13.3499 36.23 13.3299 36.03ZM17.9299 35.46C18.2399 35.37 18.9699 35.35 19.3599 35.5C18.9399 35.62 18.4199 35.42 17.9299 35.46Z" fill="#32428E"/>
<path fill-rule="evenodd" clip-rule="evenodd" d="M25.99 38.93C25.89 38.93 25.78 38.93 25.68 38.93C25.66 38.93 25.64 38.93 25.63 38.93C25.33 39.02 25.06 38.86 24.74 38.83C23.12 38.66 21.66 38.83 20.15 38.64C19.47 38.55 18.57 38.57 18 38.54C17.12 38.49 16.25 38.51 15.37 38.46C15.28 38.46 15.24 38.56 15.14 38.56C14.6 38.58 14 38.42 13.42 38.44C9.35 38.57 6.2 38.35 2.3 38.23C1.94 38.22 1.6 38.04 1.3 38.18V38.16C1.24 38.16 1.18 38.18 1.11 38.19C1 38.21 0.9 38.22 0.79 38.22C0.79 38.22 0.79 38.22 0.78 38.22C0.76 38.28 0.75 38.34 0.73 38.4C0.73 38.34 0.71 38.29 0.63 38.31C0.54 38.77 0.61 39.39 0.0100004 39.48C-0.0399996 39.8 0.13 39.87 0.22 40.03C0.37 40.01 0.52 40 0.68 39.99L0.7 39.97C0.73 39.97 0.76 39.98 0.78 39.99C0.87 39.99 0.96 39.99 1.05 40C1.05 40 1.07 40 1.08 40C1.39 39.99 1.73 39.92 1.9 40.06C2.06 40.11 1.93 39.9 2.09 39.96C2.91 40.24 5.1 39.78 6.29 40.08C6.35 40.08 6.33 39.99 6.38 39.98C8.76 40.04 11.16 40.03 13.59 40.16C15.07 40.24 16.69 40.11 18.17 40.26C19.24 40.36 20.26 40.5 21.18 40.33C21.24 40.32 21.23 40.42 21.28 40.42C21.34 40.42 21.44 40.32 21.47 40.32C22.03 40.32 22.63 40.5 23.15 40.54C23.25 40.54 23.23 40.44 23.29 40.44C23.36 40.44 23.33 40.53 23.44 40.53C23.53 40.53 23.53 40.43 23.58 40.43C24.37 40.44 25.2 40.48 25.9 40.65C26.08 40.66 26.26 40.67 26.44 40.7C26.38 40.09 26.23 39.52 26.08 38.97C26.06 38.97 26.03 38.97 26.01 38.97L25.99 38.93ZM1.61 38.9C1.52 39.16 1.21 39.21 0.86 39.22C0.8 38.98 0.97 38.95 0.99 38.79C2.48 38.57 3.73 38.9 5.1 38.96C4.05 39.1 2.45 39 1.62 38.91L1.61 38.9ZM6.98 39.54C7.31 39.47 8.14 39.4 8.51 39.57C7.91 39.66 7.52 39.52 6.98 39.54ZM10.18 39.7C10.11 39.6 9.83 39.59 9.51 39.58C9.22 39.58 8.75 39.72 8.84 39.46C9.29 39.61 9.88 39.5 10.32 39.54C10.34 39.65 10.1 39.52 10.18 39.69V39.7ZM11.53 38.79C11.74 38.71 11.68 38.92 11.87 38.87C11.83 38.95 11.53 38.91 11.53 38.79ZM18.51 39.22C18.51 39.22 18.53 39.17 18.56 39.17C18.56 39.14 18.56 39.11 18.56 39.07C18.6 39.06 18.61 39.09 18.61 39.12C18.79 39.1 18.91 39.15 19.08 39.05C19.17 39.1 19.3 39.11 19.33 39.23C19.06 39.23 18.83 39.18 18.52 39.22H18.51ZM20.3 39.91C19.9 39.86 19.36 39.93 18.91 39.82C19.28 39.73 19.97 39.73 20.29 39.86C20.47 39.88 20.76 39.78 20.86 39.88C20.67 39.88 20.48 39.9 20.29 39.9L20.3 39.91ZM25.57 39.36C25.56 39.26 25.74 39.33 25.81 39.3C25.81 39.37 25.81 39.44 25.86 39.44C25.77 39.59 25.61 39.42 25.57 39.36Z" fill="#32428E"/>
<path fill-rule="evenodd" clip-rule="evenodd" d="M9.46996 28.13C9.23996 28.15 9.46995 28.3 9.52995 28.32C9.29995 28.68 9.23995 29.2 8.89995 29.46C9.04995 29.46 9.18995 29.48 9.33995 29.52C9.33995 29.52 9.33996 29.52 9.34996 29.52C9.35996 29.5 9.36995 29.48 9.37995 29.47C9.49995 29.51 9.70996 29.44 9.71996 29.6C10.83 29.34 12.59 29.79 13.44 29.54C13.54 29.72 15.4 29.47 15.81 29.54C15.81 29.54 15.83 29.54 15.84 29.53C15.97 29.42 16.16 29.41 16.35 29.44C16.46 29.44 16.58 29.43 16.69 29.43C16.8 29.37 16.93 29.33 17.07 29.32C17.07 29.32 17.09 29.32 17.1 29.32C16.8 28.84 16.57 28.29 16.7 27.65C16.67 27.59 16.64 27.53 16.61 27.46C16.58 27.46 16.55 27.47 16.52 27.47C16.49 27.47 16.31 27.49 16.32 27.48C16.32 27.48 16.32 27.48 16.31 27.48C16.27 27.48 16.23 27.5 16.19 27.51C16.19 27.51 16.18 27.51 16.17 27.51C14.47 27.86 12.16 27.91 10.59 27.55C10.45 27.55 10.5 27.71 10.31 27.66C10.31 27.64 10.31 27.63 10.31 27.62C10.2 27.63 10.09 27.62 9.95995 27.59C9.95995 27.59 9.93996 27.59 9.92996 27.59C9.87996 27.59 9.82995 27.59 9.77995 27.57C9.77995 27.57 9.77995 27.58 9.77995 27.59C9.50995 27.55 9.18995 27.48 8.91995 27.58C8.75995 28 9.24996 27.98 9.46996 28.13ZM16.23 27.9C16.23 27.96 16.23 28.03 16.23 28.09C16.04 28.14 15.98 28.03 15.8 28.06C15.95 28.02 16.03 27.9 16.22 27.9H16.23ZM15.97 28.44C15.58 28.49 14.8 28.57 14.49 28.36C15.09 28.28 15.64 28.39 15.97 28.44ZM14.67 29.21C14.54 29.21 14.42 29.22 14.29 29.23C14.32 29.07 14.65 29.04 14.67 29.21ZM12.04 28.98C12.71 29.05 13.36 29.11 14 29.09C13.81 29.33 12.64 29.31 12.1 29.22C12.12 29.1 12.01 29.12 12.04 28.98ZM9.86995 28.35C10.59 28.36 11.04 28.47 11.97 28.46C11.46 28.69 10.5 28.58 10.12 28.68C10.01 28.67 10.16 28.9 9.97995 28.83C9.98995 28.91 9.93995 29.07 10.08 29.02C9.99995 29.17 9.84995 28.97 9.69995 29.04C9.73995 28.71 9.76995 28.65 9.85995 28.37L9.86995 28.35Z" fill="#32428E"/>
<path fill-rule="evenodd" clip-rule="evenodd" d="M18.5399 8.08C18.5999 8.24 18.6599 8.26 18.5499 8.41C19.0299 8.38 19.1099 8.89 19.0199 9.34C18.8399 9.32 18.7899 9.43 18.5899 9.41C17.8699 8.8 16.7799 8.55 15.4199 8.78C15.3099 8.6 15.3199 8.45 15.3499 8.21C16.1999 7.61 17.6299 7.66 18.5399 8.08ZM15.7899 8.38C15.9399 8.32 15.9099 8.45 15.9799 8.47C15.9299 8.3 16.1899 8.42 16.1599 8.27C15.9999 8.27 15.8299 8.27 15.7799 8.38H15.7899Z" fill="black"/>
<path fill-rule="evenodd" clip-rule="evenodd" d="M12.9801 9.64C13.1901 9.58 13.1801 9.76 13.3201 9.77C13.4201 10.64 13.4601 11.33 13.3601 12.01C13.3201 12.31 13.1701 12.55 13.1101 12.83C13.0501 13.11 13.0401 13.27 12.9401 13.46C12.6801 14 12.4801 14.7 12.4301 15.1C12.7901 15.2 13.1801 15.28 13.5801 15.34C13.8901 15.21 13.8901 14.8 14.4201 14.88C14.5101 15.24 14.3101 15.33 14.3101 15.6C13.9501 15.54 13.3401 16.01 12.9301 15.56C12.7601 15.62 12.6301 15.71 12.3601 15.68C12.4401 15.48 12.1301 15.5 12.0601 15.41C12.1201 15.5 12.0001 15.13 12.0001 15.13C11.9601 14.84 12.0901 14.33 12.3401 14.21C12.5401 13.6 12.7601 13.06 12.8901 12.42C13.0901 11.47 13.1001 10.52 12.9701 9.65L12.9801 9.64Z" fill="black"/>
<path fill-rule="evenodd" clip-rule="evenodd" d="M20.8301 8.08C20.6901 7.62 20.4901 7.76 20.8301 8.08Z" fill="black"/>
<path fill-rule="evenodd" clip-rule="evenodd" d="M12.34 38.38C11.89 38.54 11.7 38.35 12.34 38.38Z" fill="black"/>
<path fill-rule="evenodd" clip-rule="evenodd" d="M8.6599 15.61C8.7299 15.61 8.7399 15.61 8.8099 15.61C8.8099 15.64 8.8199 15.65 8.8199 15.67C8.7699 15.72 8.7099 15.71 8.6499 15.67C8.6499 15.64 8.6499 15.61 8.6499 15.6L8.6599 15.61Z" fill="#CA5747"/>
<path fill-rule="evenodd" clip-rule="evenodd" d="M9.69992 15.84C9.69992 15.84 9.71992 15.88 9.70992 15.91C9.56992 15.95 9.50992 15.8 9.42992 15.72C9.37992 15.72 9.35992 15.7 9.33992 15.68C9.23992 15.65 9.01992 15.73 8.91992 15.66C9.10992 15.56 9.47992 15.6 9.58992 15.8C9.61992 15.82 9.64992 15.85 9.69992 15.85V15.84Z" fill="#CA5747"/>
<path fill-rule="evenodd" clip-rule="evenodd" d="M8.05002 15.98C8.05002 15.98 8.04002 15.97 8.05002 15.93C8.12002 15.89 8.16002 15.78 8.26002 15.81C8.06002 16.07 7.80002 16.27 7.80002 16.73C7.87002 16.71 7.85002 16.59 7.91002 16.55C7.94002 16.31 8.04002 16.15 8.18002 16.02C8.20002 16.08 8.26002 16.02 8.30002 16.02C8.31002 16.05 8.30002 16.05 8.30002 16.09C8.11002 16.09 8.07002 16.31 7.99002 16.45C8.10002 16.42 8.12002 16.27 8.23002 16.21C8.31002 16.06 8.44002 15.95 8.54002 15.82C8.68002 15.82 8.76002 15.74 8.87002 15.76C8.88002 15.76 8.87002 15.74 8.87002 15.73C9.07002 15.7 9.15002 15.77 9.34002 15.8C9.35002 15.75 9.28002 15.8 9.30002 15.73C9.41002 15.74 9.50002 15.87 9.59002 15.94C9.59002 15.96 9.54002 15.94 9.52002 15.95C9.53002 15.9 9.47002 15.92 9.47002 15.88C9.46002 15.94 9.54002 15.98 9.58002 16.02C9.61002 16.02 9.57002 15.99 9.58002 15.96C9.65002 15.94 9.65002 16.02 9.68002 16.05C9.69002 16.06 9.75002 16.11 9.77002 16.1C9.80002 16.08 9.77002 15.97 9.79002 16.09C9.93002 16.17 9.94002 16.36 9.99002 16.5C10.03 16.46 9.95002 16.38 10.04 16.39C10.04 16.53 10.07 16.73 10.12 16.89C10.14 16.94 10.13 17.02 10.1 17.08C10.07 17.07 10.1 17.11 10.06 17.1C10.03 17.25 9.91002 17.3 9.88002 17.44C9.85002 17.46 9.83002 17.51 9.83002 17.56C9.74002 17.66 9.62002 17.73 9.56002 17.85C9.48002 17.85 9.47002 17.91 9.40002 17.93C9.40002 17.89 9.37002 17.9 9.34002 17.89C9.46002 17.81 9.60002 17.75 9.67002 17.62C9.67002 17.61 9.65002 17.62 9.63002 17.62C9.58002 17.66 9.51002 17.68 9.47002 17.74C9.26002 17.82 9.15002 18 8.89002 18.03C8.87002 18.06 8.83002 18.06 8.78002 18.06C8.77002 18.05 8.77002 18.02 8.77002 17.99C8.84002 17.95 8.96002 17.96 9.02002 17.91C8.88002 17.87 8.70002 17.95 8.57002 17.88C8.61002 17.94 8.72002 17.91 8.71002 18.02H8.62002C8.62002 18.02 8.55002 17.97 8.52002 17.94C8.27002 17.98 8.17002 17.78 7.96002 17.75C7.89002 17.58 7.67002 17.48 7.78002 17.28C7.69002 17.13 7.78002 16.83 7.71002 16.69C7.75002 16.65 7.69002 16.59 7.71002 16.5C7.75002 16.5 7.73002 16.45 7.77002 16.46C7.77002 16.46 7.75002 16.46 7.75002 16.43C7.86002 16.28 7.93002 16.13 8.02002 15.97C8.04002 15.97 8.04002 15.97 8.04002 15.99L8.05002 15.98ZM9.07002 15.79C9.07002 15.79 8.98002 15.76 8.92002 15.77C8.92002 15.77 8.93002 15.77 8.93002 15.79C8.97002 15.75 9.00002 15.8 9.07002 15.79ZM8.66002 15.84C8.66002 15.84 8.75002 15.82 8.72002 15.8C8.70002 15.81 8.67002 15.82 8.66002 15.84ZM9.08002 15.87C9.08002 15.87 9.16002 15.89 9.20002 15.92C9.22002 15.93 9.23002 15.96 9.25002 15.98C9.31002 16.02 9.38002 16.02 9.35002 16.06C9.50002 16.13 9.58002 16.27 9.69002 16.38C9.69002 16.38 9.69002 16.37 9.71002 16.37C9.66002 16.2 9.50002 16.14 9.47002 15.96C9.35002 15.9 9.20002 15.8 9.05002 15.84C9.08002 15.84 9.08002 15.87 9.09002 15.88L9.08002 15.87ZM8.59002 15.87C8.59002 15.87 8.56002 15.87 8.56002 15.89C8.59002 15.89 8.65002 15.86 8.60002 15.84C8.60002 15.85 8.60002 15.87 8.60002 15.87H8.59002ZM9.40002 15.87C9.40002 15.87 9.34002 15.82 9.32002 15.85C9.36002 15.84 9.37002 15.9 9.40002 15.87ZM9.03002 15.93C8.95002 15.9 8.79002 15.89 8.74002 15.95C8.85002 15.9 9.00002 15.97 9.11002 15.99C9.11002 15.97 9.06002 15.94 9.02002 15.93H9.03002ZM8.57002 16.03C8.57002 16.03 8.66002 15.99 8.67002 15.97C8.64002 16 8.59002 16 8.57002 16.03ZM9.17002 16.05C9.17002 16.05 9.22002 16.06 9.22002 16.1C9.22002 16.1 9.21002 16.1 9.22002 16.11C9.30002 16.11 9.20002 15.98 9.18002 16.05H9.17002ZM9.17002 16.07C9.10002 16.02 9.02002 15.99 8.90002 15.99C8.89002 15.99 8.90002 16.03 8.87002 16.02C8.83002 16.03 8.85002 15.99 8.82002 16C8.79002 16.04 8.72002 16.02 8.70002 16.07C8.76002 16.07 8.80002 16.08 8.83002 16.04C9.06002 16.01 9.15002 16.13 9.28002 16.21C9.26002 16.16 9.21002 16.1 9.16002 16.06L9.17002 16.07ZM8.39002 16.17C8.39002 16.17 8.45002 16.15 8.50002 16.16C8.50002 16.13 8.55002 16.14 8.54002 16.09C8.48002 16.07 8.43002 16.14 8.39002 16.17ZM9.06002 16.15C9.06002 16.15 8.93002 16.1 8.88002 16.12C8.91002 16.15 9.01002 16.16 9.06002 16.15ZM9.49002 16.33C9.42002 16.27 9.37002 16.13 9.29002 16.12C9.35002 16.19 9.40002 16.32 9.49002 16.33ZM9.41002 17.69C9.51002 17.66 9.58002 17.6 9.63002 17.52C9.76002 17.5 9.77002 17.36 9.80002 17.25C9.74002 17.29 9.74002 17.39 9.69002 17.45H9.62002C9.62002 17.45 9.60002 17.4 9.58002 17.39C9.77002 17.36 9.70002 17.07 9.87002 17.07C9.90002 16.92 9.99002 16.77 9.88002 16.64C9.87002 16.61 9.91002 16.64 9.90002 16.6C9.85002 16.6 9.87002 16.5 9.88002 16.46C9.82002 16.46 9.81002 16.39 9.82002 16.31C9.80002 16.25 9.76002 16.2 9.74002 16.13C9.71002 16.13 9.69002 16.12 9.67002 16.1C9.79002 16.28 9.86002 16.52 9.80002 16.74C9.84002 16.75 9.87002 16.86 9.84002 16.88C9.81002 16.88 9.84002 16.81 9.80002 16.81C9.78002 16.81 9.80002 16.85 9.76002 16.84C9.78002 16.96 9.70002 16.99 9.70002 17.11C9.68002 17.11 9.66002 17.11 9.66002 17.13C9.63002 17.24 9.51002 17.35 9.48002 17.48C9.42002 17.48 9.42002 17.53 9.39002 17.56C9.44002 17.56 9.44002 17.51 9.48002 17.49C9.52002 17.58 9.38002 17.63 9.38002 17.69H9.41002ZM8.60002 16.19C8.60002 16.19 8.67002 16.19 8.66002 16.15C8.62002 16.15 8.62002 16.18 8.60002 16.19ZM8.68002 16.23C8.68002 16.23 8.75002 16.16 8.82002 16.19C8.82002 16.15 8.80002 16.15 8.77002 16.15C8.76002 16.19 8.69002 16.18 8.68002 16.23ZM8.12002 16.64C8.20002 16.47 8.33002 16.34 8.44002 16.19C8.24002 16.25 8.14002 16.45 8.12002 16.64ZM8.44002 16.32C8.44002 16.32 8.55002 16.27 8.58002 16.22C8.50002 16.22 8.49002 16.29 8.44002 16.32ZM9.39002 16.51C9.35002 16.35 9.22002 16.24 9.07002 16.23C9.21002 16.29 9.29002 16.41 9.39002 16.51ZM8.97002 16.29C8.97002 16.29 8.93002 16.29 8.91002 16.29C8.91002 16.31 8.98002 16.33 8.97002 16.29ZM9.64002 16.39C9.67002 16.54 9.71002 16.77 9.71002 16.88C9.73002 16.84 9.74002 16.79 9.76002 16.75C9.71002 16.61 9.75002 16.4 9.61002 16.33C9.60002 16.37 9.62002 16.38 9.64002 16.39ZM9.31002 16.61C9.30002 16.49 9.25002 16.42 9.17002 16.38C9.23002 16.44 9.25002 16.55 9.31002 16.61ZM8.35002 16.58C8.37002 16.51 8.42002 16.46 8.46002 16.39C8.40002 16.43 8.33002 16.5 8.35002 16.58ZM8.43002 16.66C8.45002 16.56 8.57002 16.51 8.55002 16.39C8.52002 16.48 8.41002 16.55 8.43002 16.66ZM7.89002 16.69C7.89002 16.69 7.89002 16.76 7.89002 16.79C7.89002 16.79 7.86002 16.79 7.86002 16.81C7.86002 16.81 7.88002 16.81 7.88002 16.83C7.87002 16.89 7.88002 17.02 7.89002 17.08H7.92002C7.96002 17.16 7.95002 17.27 7.97002 17.34C7.99002 17.41 8.05002 17.43 8.09002 17.49C8.09002 17.49 8.09002 17.53 8.10002 17.54C8.13002 17.57 8.20002 17.58 8.24002 17.6C8.18002 17.48 8.08002 17.39 8.02002 17.28C7.94002 17.05 7.93002 16.61 8.07002 16.45C8.01002 16.5 7.92002 16.63 7.90002 16.7L7.89002 16.69ZM8.67002 16.72C8.71002 16.61 8.77002 16.53 8.82002 16.43H8.79002C8.75002 16.52 8.64002 16.6 8.66002 16.72H8.67002ZM8.88002 16.74C8.94002 16.73 8.97002 16.64 8.95002 16.58C8.93002 16.63 8.91002 16.69 8.88002 16.74ZM9.61002 16.7C9.61002 16.7 9.61002 16.6 9.57002 16.58C9.58002 16.62 9.56002 16.7 9.61002 16.7ZM8.43002 16.95C8.43002 16.83 8.53002 16.73 8.49002 16.63C8.48002 16.73 8.33002 16.85 8.43002 16.95ZM8.21002 16.71C8.21002 16.71 8.16002 16.99 8.21002 17.07C8.16002 16.91 8.33002 16.77 8.25002 16.65C8.25002 16.69 8.21002 16.68 8.21002 16.71ZM10.01 16.95C10.01 16.95 10.01 16.84 10 16.87C9.98002 16.98 9.94002 17.07 9.92002 17.19C9.86002 17.19 9.88002 17.27 9.89002 17.29C9.88002 17.26 9.92002 17.27 9.94002 17.27C9.98002 17.19 10.02 17.11 10.09 17.05C10.11 16.9 10.05 16.8 10.02 16.71C10.03 16.71 10.04 16.71 10.04 16.69C10.02 16.67 10.01 16.65 9.97002 16.66C9.99002 16.79 10.08 16.86 10.01 16.96V16.95ZM9.42002 16.74C9.44002 16.85 9.42002 16.85 9.42002 16.74C9.43002 16.74 9.44002 16.74 9.44002 16.72C9.42002 16.72 9.42002 16.73 9.41002 16.74H9.42002ZM9.10002 17.23C9.17002 17.23 9.17002 17.16 9.18002 17.12C9.18002 17.1 9.22002 17.08 9.22002 17.07C9.26002 16.95 9.27002 16.83 9.26002 16.75C9.23002 16.93 9.18002 17.09 9.11002 17.22L9.10002 17.23ZM9.47002 16.94C9.47002 16.94 9.52002 16.83 9.50002 16.79C9.50002 16.85 9.47002 16.87 9.47002 16.94ZM8.68002 17.07C8.68002 17.07 8.70002 17.12 8.75002 17.11C8.77002 17.07 8.72002 17.05 8.70002 17.01C8.71002 17.05 8.67002 17.03 8.68002 17.07ZM8.35002 17.09C8.35002 17.09 8.33002 17.09 8.33002 17.11C8.37002 17.14 8.36002 17.22 8.41002 17.24C8.41002 17.16 8.36002 17.14 8.36002 17.07C8.35002 17.07 8.33002 17.07 8.33002 17.08H8.35002V17.09ZM7.82002 17.15C7.82002 17.15 7.83002 17.27 7.89002 17.31C7.88002 17.24 7.89002 17.15 7.84002 17.11C7.85002 17.14 7.81002 17.11 7.82002 17.15ZM8.92002 17.18C8.92002 17.18 8.95002 17.2 8.98002 17.18C8.98002 17.15 9.00002 17.15 9.00002 17.13C8.96002 17.14 8.94002 17.13 8.92002 17.17V17.18ZM9.27002 17.3C9.27002 17.3 9.39002 17.19 9.39002 17.13C9.37002 17.2 9.25002 17.22 9.27002 17.3ZM8.75002 17.3C8.68002 17.28 8.66002 17.22 8.60002 17.19C8.62002 17.25 8.68002 17.33 8.75002 17.3ZM9.04002 17.3H9.08002C9.08002 17.3 9.08002 17.28 9.08002 17.27H9.05002C9.05002 17.27 9.05002 17.29 9.05002 17.3H9.04002ZM8.15002 17.74C8.26002 17.75 8.32002 17.81 8.39002 17.86C8.41002 17.86 8.46002 17.87 8.47002 17.85C8.44002 17.82 8.41002 17.79 8.37002 17.77C8.37002 17.77 8.38002 17.77 8.37002 17.75C8.38002 17.75 8.41002 17.8 8.42002 17.77C8.38002 17.73 8.33002 17.71 8.30002 17.66C8.24002 17.66 8.20002 17.64 8.14002 17.66C8.07002 17.56 7.92002 17.54 7.88002 17.41C7.86002 17.42 7.85002 17.37 7.84002 17.41C7.91002 17.55 8.00002 17.68 8.14002 17.76L8.15002 17.74ZM8.89002 17.43C8.97002 17.43 9.01002 17.41 9.04002 17.37C8.96002 17.36 8.92002 17.39 8.89002 17.43ZM8.84002 17.75C9.11002 17.77 9.27002 17.69 9.36002 17.53C9.23002 17.65 9.04002 17.71 8.84002 17.75ZM8.86002 17.61C8.92002 17.63 8.98002 17.61 9.02002 17.57C8.98002 17.59 8.90002 17.57 8.86002 17.61ZM8.58002 17.79C8.58002 17.79 8.66002 17.79 8.65002 17.75C8.57002 17.72 8.49002 17.7 8.41002 17.66C8.44002 17.72 8.52002 17.75 8.58002 17.79ZM9.28002 17.79C9.28002 17.79 9.38002 17.72 9.37002 17.74C9.32002 17.74 9.31002 17.78 9.28002 17.79ZM8.69002 17.84C8.69002 17.84 8.90002 17.89 8.94002 17.84C8.84002 17.84 8.78002 17.81 8.69002 17.84Z" fill="#CA5747"/>
<path fill-rule="evenodd" clip-rule="evenodd" d="M17.8499 15.06C17.6999 15.08 17.5799 15.2 17.4299 15.25C17.4599 15.08 17.6599 15.09 17.7799 14.98C17.8199 14.98 17.8299 15.02 17.8399 15.05L17.8499 15.06Z" fill="#CA5747"/>
<path fill-rule="evenodd" clip-rule="evenodd" d="M17.1801 15.29C17.1801 15.29 17.2601 15.29 17.2801 15.29C17.2801 15.32 17.2401 15.31 17.2601 15.35C17.1901 15.35 17.1901 15.44 17.1401 15.46C17.0801 15.4 17.1901 15.36 17.1801 15.28V15.29Z" fill="#CA5747"/>
<path fill-rule="evenodd" clip-rule="evenodd" d="M18.6499 15.43H18.6799C18.6799 15.43 18.7399 15.48 18.7099 15.52C18.6699 15.5 18.6499 15.47 18.6499 15.43Z" fill="#CA5747"/>
<path fill-rule="evenodd" clip-rule="evenodd" d="M18.9799 17C18.9599 17.1 18.8399 17.1 18.8099 17.2C18.7199 17.23 18.6899 17.33 18.5899 17.36C18.5699 17.32 18.5099 17.36 18.5199 17.29C18.7399 17.26 18.7699 17.04 18.9799 17Z" fill="#CA5747"/>
<path fill-rule="evenodd" clip-rule="evenodd" d="M18.59 15.29C18.59 15.29 18.59 15.3 18.58 15.31C18.54 15.32 18.56 15.28 18.52 15.29C18.55 15.35 18.64 15.35 18.65 15.44C18.59 15.42 18.55 15.38 18.52 15.33C18.47 15.36 18.48 15.3 18.46 15.29C18.42 15.27 18.35 15.29 18.3 15.29C18.19 15.27 18.15 15.25 18.07 15.27C18.03 15.28 17.97 15.32 17.89 15.29C17.89 15.32 17.96 15.29 17.95 15.33C17.98 15.3 18.05 15.31 18.11 15.31C18.12 15.31 18.11 15.29 18.13 15.29C18.41 15.35 18.63 15.48 18.78 15.67C18.78 15.64 18.71 15.6 18.72 15.53C18.82 15.62 18.84 15.72 18.92 15.82H18.9C19.08 15.92 19.08 16.27 19.03 16.48C19.03 16.48 19.04 16.48 19.05 16.49C19 16.49 19.03 16.51 19.01 16.57C18.98 16.67 18.87 16.78 18.9 16.86C18.83 16.92 18.78 17 18.72 17.08C18.64 17.1 18.55 17.13 18.52 17.21C18.44 17.26 18.35 17.33 18.26 17.39C18.26 17.39 18.24 17.42 18.24 17.45C18.22 17.47 18.19 17.47 18.18 17.49C18.16 17.49 18.16 17.47 18.15 17.47C17.83 17.61 17.31 17.73 17.13 17.38C17.08 17.4 17.1 17.35 17.06 17.36C17.05 17.34 17.05 17.31 17.02 17.31C16.99 17.11 16.76 17.07 16.77 16.85C16.81 16.85 16.8 16.84 16.83 16.85C16.83 16.93 16.88 16.94 16.9 16.99C16.88 16.86 16.8 16.7 16.78 16.53C16.78 16.5 16.71 16.53 16.7 16.51C16.7 16.42 16.65 16.42 16.67 16.35C16.69 16.34 16.7 16.34 16.71 16.35C16.71 16.31 16.71 16.31 16.71 16.27C16.71 16.27 16.75 16.34 16.75 16.38C16.78 16.26 16.79 16.12 16.84 16.02C16.84 15.99 16.79 16.02 16.79 15.99C16.79 15.95 16.81 15.94 16.79 15.89C16.83 15.86 16.87 15.83 16.9 15.79C16.94 15.86 16.85 15.88 16.86 15.96C16.97 15.8 17.06 15.61 17.23 15.51C17.3 15.34 17.53 15.33 17.65 15.21V15.26C17.76 15.26 17.84 15.21 17.92 15.17C17.9 15.14 17.86 15.18 17.83 15.17C17.84 15.1 17.93 15.11 17.97 15.06C18 15.06 18.01 15.08 18.05 15.06V15.13C18.11 15.13 18.15 15.13 18.19 15.11C18.29 15.2 18.5 15.19 18.6 15.28C18.6 15.3 18.59 15.28 18.59 15.27V15.29ZM17.96 15.23C17.96 15.23 18.02 15.25 18.05 15.23C18.05 15.18 17.96 15.2 17.96 15.23ZM17.68 15.36C17.74 15.32 17.85 15.35 17.89 15.32C17.83 15.28 17.71 15.32 17.68 15.36ZM18.04 15.38C18.04 15.38 18.18 15.4 18.23 15.43C18.23 15.46 18.17 15.43 18.17 15.45C18.27 15.47 18.35 15.51 18.46 15.52C18.36 15.43 18.22 15.32 18.04 15.38ZM17.48 15.54C17.56 15.48 17.66 15.44 17.73 15.38C17.65 15.4 17.52 15.45 17.48 15.54ZM17.61 15.49C17.57 15.56 17.48 15.6 17.4 15.63C17.35 15.72 17.24 15.82 17.22 15.92C17.27 15.85 17.4 15.65 17.44 15.69C17.52 15.57 17.71 15.56 17.78 15.43C17.81 15.42 17.85 15.43 17.85 15.39C17.75 15.41 17.68 15.5 17.6 15.5L17.61 15.49ZM17.85 15.46C17.91 15.46 17.96 15.42 18.02 15.41C18 15.41 18.02 15.38 17.98 15.39C17.96 15.44 17.86 15.41 17.86 15.46H17.85ZM18.55 15.54C18.53 15.49 18.47 15.47 18.42 15.45C18.45 15.49 18.48 15.54 18.55 15.54ZM17.04 15.81H17.01C16.98 15.88 16.96 15.97 16.9 16.01C16.91 16.08 16.89 16.11 16.86 16.14C16.86 16.16 16.89 16.14 16.88 16.17C16.81 16.27 16.88 16.44 16.82 16.52C16.86 16.52 16.87 16.5 16.88 16.49C16.84 16.44 16.93 16.29 16.9 16.24C16.97 16.16 16.98 16.03 17.05 15.96C17.1 15.74 17.25 15.63 17.37 15.48C17.21 15.55 17.11 15.66 17.04 15.82V15.81ZM18.64 15.76C18.6 15.66 18.55 15.56 18.42 15.55C18.5 15.62 18.57 15.69 18.64 15.76ZM18.64 15.91C18.58 15.76 18.43 15.63 18.3 15.59C18.4 15.71 18.54 15.79 18.64 15.91ZM18.86 16.18C18.84 15.9 18.72 15.68 18.55 15.6C18.71 15.75 18.79 15.97 18.86 16.18ZM17.8 15.68C17.8 15.68 17.78 15.74 17.81 15.76C17.87 15.7 17.98 15.68 18.04 15.62C17.93 15.61 17.87 15.64 17.8 15.68ZM17.94 15.75C18.02 15.73 18.01 15.75 18.07 15.73C18.11 15.78 18.23 15.75 18.27 15.79C18.27 15.63 18.01 15.67 17.94 15.75ZM18.78 15.75C18.78 15.75 18.78 15.69 18.74 15.69C18.76 15.71 18.75 15.75 18.78 15.75ZM18.32 15.84C18.42 15.84 18.43 15.94 18.51 15.96C18.47 15.84 18.37 15.79 18.28 15.72C18.28 15.76 18.32 15.79 18.32 15.83V15.84ZM17.38 15.83C17.38 15.83 17.32 15.86 17.32 15.87C17.28 15.92 17.25 16.02 17.22 16.07C17.22 16.07 17.19 16.07 17.19 16.08C17.15 16.16 17.14 16.27 17.17 16.36C17.22 16.15 17.32 15.98 17.42 15.82C17.43 15.82 17.45 15.82 17.45 15.81C17.42 15.81 17.47 15.78 17.47 15.77C17.41 15.77 17.41 15.79 17.39 15.82L17.38 15.83ZM17.6 16C17.6 16 17.66 15.92 17.71 15.89C17.7 15.85 17.73 15.77 17.71 15.8C17.67 15.85 17.6 15.94 17.6 16ZM17.9 15.83C17.96 15.83 18.03 15.83 18.05 15.79C17.98 15.79 17.95 15.82 17.9 15.83ZM18.87 15.92C18.87 15.92 18.88 15.9 18.89 15.89C18.83 15.88 18.85 15.79 18.78 15.78C18.81 15.83 18.84 15.87 18.87 15.93V15.92ZM18.23 15.89C18.23 15.89 18.12 15.83 18.07 15.86C18.13 15.86 18.18 15.92 18.23 15.89ZM17.9 15.98C17.9 15.98 17.99 15.93 18.03 15.89C17.96 15.89 17.93 15.93 17.9 15.98ZM18.34 15.9C18.56 16.12 18.37 16.55 18.24 16.77C18.45 16.67 18.71 15.97 18.34 15.9ZM17.54 16.32C17.54 16.32 17.51 16.42 17.57 16.42C17.62 16.25 17.72 16.14 17.79 15.99C17.82 15.98 17.89 15.92 17.85 15.91C17.69 16 17.58 16.13 17.54 16.32ZM18.75 16.06C18.75 16.01 18.73 15.98 18.7 15.96C18.7 16 18.75 16.06 18.75 16.06ZM17.03 16.27C17.11 16.22 17.09 16.07 17.13 16.01C17.13 16.01 17.13 16 17.11 16C17.09 16.1 17 16.17 17.03 16.27ZM18.95 16.1L18.91 16.01C18.91 16.05 18.91 16.11 18.95 16.1ZM18.09 16.57C18.17 16.48 18.21 16.34 18.23 16.19C18.19 16.15 18.21 16.05 18.14 16.03C18.22 16.22 18.09 16.42 18.08 16.57H18.09ZM17.36 16.25C17.43 16.25 17.39 16.14 17.43 16.11C17.38 16.13 17.39 16.21 17.36 16.25ZM17.9 16.62C17.96 16.63 17.95 16.59 17.96 16.57C17.97 16.55 18.01 16.52 18.02 16.5C18.06 16.41 18.06 16.31 18.1 16.23C18.11 16.19 18.08 16.18 18.08 16.16C18.09 16.16 18.1 16.16 18.1 16.14C18.09 16.14 18.08 16.14 18.07 16.14C18.06 16.35 17.95 16.47 17.9 16.64V16.62ZM18.32 16.24C18.32 16.24 18.34 16.15 18.29 16.17C18.31 16.19 18.29 16.25 18.32 16.24ZM16.99 16.31C16.99 16.31 16.97 16.39 16.95 16.42V16.52C16.95 16.52 16.95 16.56 16.96 16.56V16.51C16.96 16.51 17.02 16.35 17.02 16.3C17.02 16.31 17 16.31 16.99 16.31ZM18.22 16.61C18.29 16.56 18.34 16.37 18.32 16.29C18.3 16.41 18.24 16.49 18.22 16.61ZM18.47 16.63C18.54 16.57 18.6 16.44 18.58 16.32C18.56 16.43 18.51 16.53 18.47 16.63ZM17.4 16.7C17.36 16.62 17.39 16.46 17.35 16.37C17.31 16.5 17.33 16.6 17.4 16.7ZM17.66 16.59C17.63 16.52 17.68 16.39 17.66 16.37C17.66 16.44 17.58 16.56 17.66 16.59ZM17.27 16.45C17.27 16.45 17.26 16.43 17.25 16.42C17.27 16.42 17.27 16.41 17.27 16.39C17.23 16.39 17.23 16.46 17.27 16.45ZM17.84 16.49C17.84 16.49 17.9 16.42 17.86 16.38C17.85 16.4 17.81 16.45 17.84 16.49ZM17.09 16.75C17.09 16.64 17.03 16.57 17.02 16.5C17.03 16.62 17.02 16.7 17.09 16.75ZM17.29 16.79C17.29 16.79 17.34 16.84 17.36 16.79C17.3 16.75 17.28 16.65 17.27 16.55H17.24C17.24 16.65 17.29 16.69 17.28 16.78L17.29 16.79ZM17.57 16.62V16.56C17.57 16.56 17.55 16.56 17.54 16.56C17.55 16.58 17.54 16.63 17.57 16.62ZM17.83 16.72C17.84 16.66 17.79 16.67 17.78 16.64C17.78 16.68 17.8 16.71 17.83 16.72ZM18.01 16.72C18.01 16.72 18.05 16.68 18.07 16.66C18.04 16.66 17.98 16.74 18.01 16.72ZM17.69 16.8C17.69 16.8 17.67 16.7 17.64 16.7C17.64 16.74 17.66 16.79 17.69 16.8ZM18.09 16.99C18.18 16.99 18.21 16.93 18.3 16.94C18.34 16.87 18.5 16.77 18.48 16.71C18.37 16.82 18.23 16.91 18.1 17L18.09 16.99ZM18.35 17.02C18.43 16.97 18.53 16.88 18.54 16.79C18.49 16.88 18.41 16.94 18.35 17.02ZM17.76 16.92C17.76 16.92 17.74 16.89 17.74 16.86C17.72 16.86 17.7 16.86 17.7 16.87C17.72 16.88 17.74 16.91 17.76 16.92ZM17.12 16.96C17.12 16.96 17.19 17.05 17.21 17.03C17.19 16.98 17.15 16.95 17.16 16.87H17.13C17.13 16.87 17.11 16.92 17.13 16.95L17.12 16.96ZM17.8 17.26H17.95C17.95 17.26 17.88 17.24 17.82 17.24C17.8 17.2 17.76 17.21 17.69 17.2C17.58 17.11 17.47 17.02 17.4 16.89C17.36 16.89 17.36 16.87 17.33 16.89C17.33 16.94 17.38 16.95 17.37 17C17.48 17.07 17.55 17.29 17.72 17.23C17.72 17.27 17.8 17.23 17.79 17.27L17.8 17.26ZM17.84 17.11C17.74 17.03 17.63 16.96 17.53 16.88C17.59 17 17.71 17.06 17.84 17.11ZM17.45 17.2C17.45 17.2 17.49 17.23 17.49 17.2C17.44 17.16 17.39 17.11 17.35 17.05C17.36 17.12 17.43 17.13 17.45 17.2ZM17.96 17.07C18.01 17.12 18.11 17.1 18.16 17.05C18.11 17.07 18.02 17.09 17.96 17.07ZM17.19 17.34C17.19 17.34 17.27 17.31 17.28 17.27C17.21 17.27 17.17 17.24 17.12 17.21C17.12 17.28 17.18 17.29 17.18 17.35L17.19 17.34ZM17.27 17.39C17.37 17.48 17.54 17.56 17.71 17.53C17.65 17.47 17.6 17.41 17.5 17.41C17.46 17.31 17.32 17.28 17.27 17.39ZM17.51 17.58C17.41 17.57 17.36 17.5 17.28 17.48C17.32 17.54 17.46 17.61 17.51 17.58Z" fill="#CA5747"/>
<path fill-rule="evenodd" clip-rule="evenodd" d="M18.7099 15.39C18.7099 15.39 18.6699 15.37 18.6899 15.33C18.7999 15.35 18.8799 15.41 18.9299 15.51C18.9599 15.56 18.9299 15.54 18.9799 15.57C18.8699 15.57 18.8499 15.39 18.7099 15.39Z" fill="#CA5747"/>
<path fill-rule="evenodd" clip-rule="evenodd" d="M19.13 15.87H19.15C19.2 15.96 19.28 16.1 19.26 16.26C19.26 16.32 19.2 16.37 19.23 16.44C19.13 16.58 19.11 16.79 19.05 16.97C18.96 16.81 19.12 16.67 19.11 16.55C19.18 16.48 19.17 16.33 19.22 16.24C19.22 16.07 19.1 16.05 19.13 15.87Z" fill="#CA5747"/>
<path fill-rule="evenodd" clip-rule="evenodd" d="M22.82 12.63C22.82 12.63 22.73 12.62 22.69 12.62C22.52 12.62 22.36 12.7 22.22 12.79C21.89 14.2 21.46 15.57 21.02 16.95C21 17 20.98 17.04 20.96 17.08C21.25 16.95 21.52 16.79 21.77 16.63C22 16.49 22.23 16.35 22.48 16.22C22.53 16.05 22.59 15.85 22.82 15.81C22.89 15.55 23.02 15.32 23.14 15.1C23.28 14.83 23.42 14.58 23.46 14.29C23.55 13.58 23.22 12.7 22.82 12.62V12.63Z" fill="#E9C3C3"/>
<path fill-rule="evenodd" clip-rule="evenodd" d="M25.7601 37.6C25.6801 37.33 25.5801 37.11 25.4901 36.85C25.4801 36.81 25.4801 36.76 25.4901 36.71C25.4901 36.71 25.4901 36.69 25.4801 36.68C25.3201 36.28 25.0701 35.9 24.9901 35.47C24.9801 35.45 24.9701 35.42 24.9501 35.4C24.8601 35.35 24.8301 35.22 24.7201 35.2C24.1601 34.25 23.2301 33.7 22.4801 32.95C22.4801 32.94 22.4701 32.92 22.4601 32.91C21.9301 32.63 21.4401 32.27 20.9801 31.88C20.9601 31.86 20.9501 31.85 20.9301 31.83C20.9101 31.82 20.8901 31.81 20.8601 31.8C20.8501 31.8 20.8301 31.79 20.8201 31.78C20.7701 31.78 20.7101 31.78 20.6601 31.78C20.2401 31.5 19.9001 31.14 19.3401 31.02C18.8901 30.44 18.1901 30.15 17.6201 29.71C17.2101 29.02 16.4401 28.22 16.6601 27.17C16.2201 26.43 16.4301 25.05 16.7401 24.35C16.8801 23.56 17.1901 22.93 17.6101 22.41C17.5701 21.71 18.0801 21.53 18.3701 21.14C19.7801 21.28 20.9901 21.36 22.7101 21.15C22.7901 20.91 22.8201 20.61 22.6801 20.39C22.2401 20.65 21.5701 20.78 21.1701 20.83C20.4701 20.6 19.6901 20.45 19.3201 19.86C19.8901 18.95 20.5701 18.14 20.9701 17.07C21.9001 16.86 22.4901 16.33 23.2601 15.97C23.3201 15.78 23.3701 15.58 23.6301 15.57C23.7901 14.97 24.2501 14.55 24.3301 13.97C24.4401 13.21 24.0601 12.28 23.5901 12.19C23.0201 12.08 22.6301 12.64 22.1801 12.82C22.3501 11.15 21.9901 9.65 21.3301 8.37C20.9401 7.04 20.1001 6.19 19.4801 5.11C19.0501 4.79 18.6901 4.39 18.2901 4.11C18.2801 4.11 18.2701 4.09 18.2601 4.09C18.1901 4.17 18.0901 4.23 17.9601 4.25C17.9301 4.29 17.8901 4.32 17.8401 4.35C17.5401 4.53 17.2401 4.7 16.9301 4.86C17.0801 5.06 17.2301 5.26 17.4801 5.34C17.8801 5.82 18.2101 6.37 18.7301 6.72C19.1001 7.58 19.7601 8.12 20.2001 8.9C20.5201 9.02 20.6601 9.42 20.9501 9.73C21.3301 10.12 21.3101 11.35 21.0901 11.92C21.1301 13.01 20.7701 13.73 20.5801 14.61C20.5301 14.65 20.4501 14.68 20.3401 14.67C20.5301 15.59 19.4801 15.95 19.7601 16.74C19.9001 16.74 20.1701 16.85 20.2801 16.72C20.3601 16.8 20.0801 17.3 20.4901 17.24C20.1401 18.15 19.5001 18.8 19.0601 19.64C17.9701 18.56 17.7801 16.52 16.1001 16.09C15.9801 15.74 15.3701 15.45 15.0301 15.66C14.3101 15.67 13.5601 15.76 13.4401 16.44C13.3401 16.35 13.2101 16.29 13.1901 16.12C12.8501 16.07 12.5701 15.97 12.3601 15.77C11.5801 15.88 10.9301 16.08 10.4801 16.56C10.4001 16.64 10.3801 16.84 10.3001 16.9C10.2001 16.99 10.0701 16.94 10.0201 17.01C9.99008 17.04 9.99008 17.22 9.94008 17.3C9.81008 17.49 9.41008 17.73 9.49008 17.94C9.47008 18.05 9.41008 17.89 9.35008 17.99C8.87008 18.77 8.31008 19.47 7.47008 19.93C7.17008 19.62 6.94008 19.25 6.62008 18.96C6.89008 18.69 6.89008 18.38 7.16008 18.17C6.88008 17.44 6.10008 16.74 6.26008 15.87C6.18008 15.84 6.18008 15.72 6.06008 15.73C6.31008 15.48 5.73008 14.95 6.02008 14.68C6.07008 14.52 5.86008 14.65 5.92008 14.49C6.17008 13.88 5.84008 12.74 6.15008 12C6.42008 11.62 6.94008 11.48 7.31008 11.19C7.88008 11.05 8.37008 10.85 8.76008 10.56C9.58008 10.56 9.87008 10.05 10.6501 10.01C11.4701 9.76 12.1201 9.35 12.8001 8.97C14.3601 8 15.5001 6.65 16.4401 5.11C16.0701 5.3 15.6901 5.48 15.3101 5.64C14.6401 6.26 13.8101 6.73 13.0701 7.29C13.2901 6.82 13.9801 6.78 14.1701 6.29C14.5401 6.21 14.7701 5.99 14.9901 5.77C14.3401 6.03 13.6701 6.24 12.9801 6.38C12.9201 6.39 12.8601 6.39 12.8001 6.38C12.5901 6.46 12.3901 6.55 12.1901 6.64C11.7601 6.87 11.3201 7.11 10.9001 7.36C10.8301 7.4 10.7501 7.43 10.6801 7.43C10.5201 7.53 10.3601 7.64 10.2101 7.75C9.75008 8.06 9.23008 8.28 8.73008 8.52C7.83008 8.95 6.92008 9.36 5.99008 9.72C5.96008 9.77 5.93008 9.82 5.91008 9.87C5.91008 9.83 5.93008 9.78 5.95008 9.74C5.71008 9.83 5.46008 9.92 5.21008 10.01C5.17008 10.02 5.13008 10.03 5.09008 10.03C5.06008 10.11 5.01008 10.17 4.98008 10.24C5.02008 10.24 5.07008 10.24 5.08008 10.28C4.84008 10.8 4.77008 11.53 4.44008 12.07C4.48008 12.64 4.40008 12.88 4.45008 13.5C4.36008 13.52 4.25008 13.53 4.27008 13.65C4.27008 13.71 4.27008 13.78 4.27008 13.84C4.29008 13.97 4.45008 13.94 4.52008 14.02C4.44008 14.22 4.56008 14.42 4.45008 14.64C3.97008 13.94 2.87008 14.87 3.10008 15.36C2.88008 15.48 2.95008 15.77 2.95008 16.27C3.30008 17.27 3.60008 18.31 4.66008 18.54C4.83008 18.83 5.19008 18.92 5.58008 18.98C6.14008 19.07 6.57008 19.08 6.71008 19.7C7.00008 19.71 7.05008 20 7.21008 20.16C6.52008 20.68 5.64008 20.86 4.71008 20.98C4.54008 20.87 3.93008 20.74 3.46008 20.84C3.43008 21.02 3.39008 21.21 3.48008 21.36C4.19008 21.4 5.03008 21.3 5.73008 21.46C6.24008 21.23 6.89008 21.33 7.44008 21.2C7.54008 20.99 7.78008 21.05 8.06008 21.08C8.32008 21.57 8.72008 21.92 8.93008 22.48C9.02008 22.49 9.02008 22.41 9.07008 22.38C9.57008 23.62 10.4301 25.34 9.78008 27.01C9.78008 27.04 9.78008 27.08 9.76008 27.11C9.69008 27.34 9.58008 27.55 9.46008 27.76C9.46008 27.78 9.45008 27.81 9.44008 27.83C9.46008 27.84 9.48008 27.85 9.49008 27.85C9.27008 28.19 9.21008 28.67 8.92008 28.94C8.87008 29.06 8.81008 29.18 8.74008 29.29C8.74008 29.31 8.74008 29.33 8.74008 29.35C8.25008 29.85 7.68008 30.27 7.17008 30.75C7.17008 30.73 7.14008 30.72 7.12008 30.72C6.99008 30.85 6.86008 30.98 6.71008 31.1C6.71008 31.1 6.70008 31.12 6.69008 31.12C6.64008 31.17 6.59008 31.22 6.54008 31.27C6.54008 31.3 6.54008 31.32 6.53008 31.34C6.50008 31.34 6.47008 31.35 6.44008 31.36C6.23008 31.55 6.00008 31.73 5.75008 31.88C5.73008 31.89 5.72008 31.91 5.70008 31.92C5.70008 31.92 5.68008 31.94 5.67008 31.95C5.67008 31.95 5.65008 31.97 5.64008 31.97C5.64008 31.97 5.64008 31.98 5.64008 31.99C4.97008 32.38 4.39008 32.85 3.79008 33.35C3.55008 33.55 3.29008 33.81 3.02008 33.94C2.96008 34.03 2.90008 34.11 2.83008 34.2C2.75008 34.5 2.59008 34.72 2.38008 34.89C2.19008 35.16 2.00008 35.44 1.83008 35.72C1.83008 35.74 1.81008 35.75 1.80008 35.76C1.57008 36.22 1.24008 36.64 0.980078 37.12C0.980078 37.15 0.960078 37.18 0.950078 37.21C0.890078 37.35 0.820078 37.49 0.760078 37.63C0.730078 37.71 0.710078 37.79 0.690078 37.88C0.690078 37.86 0.690078 37.84 0.670078 37.82C0.620078 37.92 0.580078 38.02 0.540078 38.12C0.510078 38.37 0.470078 38.63 0.310078 38.79C0.270078 39.02 0.210078 39.23 0.150078 39.45C0.160078 39.47 0.180078 39.49 0.190078 39.51C0.150078 39.67 0.110078 39.83 0.0800781 40C0.100078 40 0.120078 40 0.150078 40C0.230078 40.03 0.310078 40.05 0.400078 40.07C0.420078 39.92 0.470078 39.73 0.540078 39.59C0.560078 39.33 0.680078 39.06 0.800078 38.82C0.800078 38.78 0.820078 38.75 0.830078 38.71C0.770078 38.47 0.940078 38.44 0.960078 38.28C0.960078 38.28 0.960078 38.28 0.970078 38.28C1.01008 38.17 1.05008 38.06 1.09008 37.95C1.13008 37.79 1.20008 37.64 1.29008 37.5C1.41008 36.72 1.94008 36.32 2.24008 35.7C2.25008 35.7 2.26008 35.7 2.27008 35.7C2.28008 35.67 2.30008 35.64 2.32008 35.61C2.33008 35.59 2.34008 35.58 2.35008 35.57C2.36008 35.51 2.39008 35.45 2.43008 35.4C2.47008 35.34 2.51008 35.29 2.55008 35.24C2.59008 35.18 2.62008 35.12 2.66008 35.07C2.68008 34.99 2.72008 34.92 2.78008 34.85C2.84008 34.79 2.89008 34.73 2.95008 34.67C2.95008 34.67 2.95008 34.65 2.95008 34.64C2.95008 34.64 2.95008 34.64 2.96008 34.64C3.16008 34.4 3.34008 34.14 3.58008 33.95C4.19008 33.28 5.01008 32.81 5.71008 32.23C5.73008 32.23 5.75008 32.23 5.77008 32.23C6.00008 32.03 6.27008 31.88 6.53008 31.72C6.62008 31.66 6.70008 31.59 6.79008 31.53C6.77008 31.53 6.75008 31.53 6.73008 31.52C6.78008 31.42 6.91008 31.36 7.06008 31.34C7.18008 31.26 7.29008 31.17 7.40008 31.09C7.71008 30.82 8.01008 30.53 8.33008 30.27C8.33008 30.27 8.31008 30.27 8.30008 30.27C8.62008 29.82 9.07008 29.48 9.35008 28.99C9.36008 28.99 9.37008 28.99 9.39008 28.99C9.43008 28.91 9.47008 28.84 9.52008 28.77C9.53008 28.74 9.55008 28.71 9.56008 28.68C9.61008 28.57 9.65008 28.46 9.69008 28.35C9.72008 28.17 9.76008 28.08 9.83008 27.86C9.84008 27.86 9.85008 27.86 9.86008 27.86C9.95008 27.59 10.0501 27.33 10.1801 27.08C10.4201 26.58 10.3401 26.2 10.4201 25.92C10.3801 25.77 10.3801 25.61 10.4001 25.46C10.2901 23.44 9.38008 22.2 8.45008 20.95C9.65008 20.36 10.6901 19.62 11.7501 18.91C12.3401 18.12 13.0701 17.47 13.4101 16.46C13.4601 16.57 13.6701 16.51 13.6101 16.74C13.8501 16.69 13.9301 16.83 14.1401 16.81C14.2101 17.1 14.4401 17.21 14.6401 17.36C14.6401 17.78 14.8301 18.27 15.0201 18.54C15.0701 18.62 15.2901 18.7 15.3601 18.81C15.5101 19.05 15.6201 19.31 15.8201 19.51C15.8501 19.54 16.0301 19.55 16.0601 19.6C16.3801 20.03 17.0301 20.27 17.3501 20.79C17.6101 20.81 17.7801 20.92 17.9801 21C17.7701 21.43 17.2701 21.6 17.2701 22.22C16.9401 22.88 16.4201 23.36 16.4001 24.31C16.4001 24.36 16.3701 24.41 16.3501 24.45C16.3501 24.45 16.3501 24.45 16.3601 24.45C16.0101 25.05 16.0301 26.01 16.1101 26.82C16.1101 26.85 16.1301 26.87 16.1401 26.9C16.1401 26.95 16.1501 26.99 16.1601 27.04C16.1601 27.04 16.1601 27.08 16.1601 27.09C16.1701 27.17 16.1801 27.24 16.1901 27.32C16.2001 27.43 16.2201 27.54 16.2401 27.64C16.2701 27.81 16.3101 27.98 16.3501 28.15C16.3901 28.29 16.4301 28.43 16.4701 28.57C16.5401 28.72 16.6001 28.87 16.6601 29.02C16.6901 29.02 16.7201 29.04 16.7401 29.05C17.1201 30.03 18.0301 30.44 18.7801 31.02H18.7601C19.3501 31.3 19.9501 31.68 20.5001 32C20.9601 32.27 21.4601 32.52 21.8401 32.9C22.6501 33.46 23.2801 34.21 24.0501 34.81C24.0201 34.81 23.9801 34.82 23.9501 34.83C24.5901 35.43 24.9401 36.18 25.2301 37.04C25.2501 37.04 25.2701 37.04 25.2901 37.04C25.3201 37.19 25.3501 37.35 25.3901 37.5C25.4501 37.7 25.5201 37.9 25.5701 38.1C25.6101 38.19 25.6601 38.28 25.7301 38.36C25.7101 38.37 25.6801 38.38 25.6601 38.39C25.7001 38.52 25.7301 38.66 25.7701 38.79C25.7801 38.79 25.7901 38.79 25.8001 38.79C25.8001 38.86 25.8001 38.93 25.8501 38.93C25.8401 38.95 25.8201 38.96 25.8101 38.97C25.9001 39.36 25.9801 39.74 26.0301 40.14C26.0501 40.14 26.0701 40.14 26.0901 40.16C26.0701 40.2 26.0601 40.24 26.0501 40.29C26.0601 40.41 26.0701 40.53 26.0801 40.65C26.0901 40.66 26.1001 40.68 26.1101 40.69C26.2801 40.72 26.2901 40.61 26.4401 40.63C26.4001 39.49 26.0701 38.53 25.7901 37.56L25.7601 37.6ZM18.8101 5.2C18.6301 5.19 18.4901 5.2 18.4801 5.36C18.2101 5.21 18.0901 4.89 17.9201 4.62C18.1301 4.72 18.1801 5 18.3201 5.18C18.4501 5.18 18.5901 5.18 18.6501 5.12C18.6501 5.03 18.5901 5.02 18.5901 4.93C18.7901 5.08 18.9701 5.25 19.0901 5.48C18.9601 5.42 18.8201 5.37 18.7901 5.21L18.8101 5.2ZM20.0801 7.06C19.9701 7.05 20.1201 7.28 19.9401 7.21C19.9401 7.14 19.9401 7.07 19.8901 7.07C19.9301 7.02 20.2301 6.86 20.2201 7.06C20.1701 7.06 20.1201 7.06 20.0801 7.06ZM21.7001 15.29C21.6901 14.74 22.0001 13.99 22.2001 13.55C22.2201 13.5 22.1601 13.4 22.2001 13.36C22.3301 13.18 23.1201 12.63 23.3101 12.6C23.7701 12.52 24.0001 13.42 23.9401 13.96C23.8101 15.03 23.0101 15.66 22.2201 16.22C22.2201 16.19 22.2201 16.16 22.2201 16.12C21.9301 16.34 21.6301 16.56 21.1901 16.64C21.3501 16.17 21.4501 15.66 21.7101 15.28L21.7001 15.29ZM21.0401 15.41C21.1001 15.41 21.1701 15.41 21.2301 15.41C21.2301 15.62 21.0701 15.69 21.0601 15.89C20.9601 15.89 21.0601 15.62 21.0401 15.41ZM14.8601 6.6C14.8601 6.66 14.8601 6.73 14.8601 6.79C14.2801 6.99 14.2601 7.7 13.6601 7.89C13.7101 7.77 13.9101 7.55 13.6401 7.51C14.0401 7.2 14.5301 6.99 14.8401 6.6H14.8601ZM13.4001 8.19C13.4001 8.07 13.4601 8 13.5801 7.99C13.5801 8.21 12.9501 8.34 13.4001 8.19ZM12.1301 8.62C12.2301 8.41 12.4501 8.31 12.6901 8.22C12.5601 8.4 12.3501 8.52 12.1301 8.62ZM12.9601 6.77C12.7401 7.16 12.3001 7.35 11.9001 7.58C12.0001 7.39 12.6201 7.01 12.9601 6.77ZM12.5201 7.74C12.2801 7.68 12.2701 7.85 12.1001 7.85C12.1701 7.69 12.4001 7.67 12.5201 7.55C12.5201 7.61 12.5201 7.68 12.5201 7.74ZM11.9101 7.96C12.0701 8.2 12.2501 7.91 12.4801 7.94C12.2101 8.2 11.4501 8.48 11.1601 8.42C11.2501 8.12 11.7501 8.2 11.9001 7.96H11.9101ZM10.2401 8.03C10.6601 7.99 10.8601 7.74 11.1301 7.56C11.1301 7.91 10.4201 8.01 10.2101 8.31C10.0301 8.21 10.3301 8.18 10.2501 8.02L10.2401 8.03ZM10.7701 9.25C10.2601 9.75 9.58008 9.83 8.80008 10.09C9.47008 9.72 9.97008 9.46 10.7701 9.25ZM8.48008 9.15C8.23008 9.27 8.15008 9.55 7.78008 9.56C7.96008 9.37 8.16008 9.21 8.48008 9.15ZM8.34008 10.4C7.98008 10.81 7.17008 10.82 6.75008 11.18C6.88008 10.76 7.73008 10.38 8.34008 10.4ZM5.73008 15.42C5.53008 15.45 5.63008 15.16 5.53008 15.09C5.53008 15.03 5.62008 15.05 5.67008 15.04C5.64008 15.22 5.74008 15.27 5.73008 15.42ZM5.48008 14.05C5.48008 13.69 5.54008 13.37 5.58008 13.09C5.82008 13.46 5.51008 14.58 5.65008 14.85C5.41008 14.93 5.47008 14.37 5.47008 14.05H5.48008ZM5.61008 17.15C5.46008 17.15 5.44008 17 5.45008 16.82C5.61008 16.82 5.56008 17.03 5.61008 17.15ZM5.45008 16.73C5.22008 16.57 5.19008 16.18 5.08008 15.89C5.17008 15.82 5.46008 16.36 5.45008 16.73ZM4.96008 11.69C5.17008 11.97 4.95008 12.54 4.86008 12.84C4.79008 12.54 4.82008 11.95 4.96008 11.69ZM4.85008 13.65C4.93008 13.53 4.89008 13.96 4.91008 14.08C4.83008 14.2 4.87008 13.77 4.85008 13.65ZM3.77008 17.56C3.66008 17.14 3.58008 16.68 3.34008 16.39C3.11008 15.68 3.44008 15.23 3.66008 14.8C3.95008 14.66 4.09008 14.87 4.33008 14.92C4.77008 16.24 5.24008 17.54 5.86008 18.44C5.09008 18.76 4.35008 17.93 3.77008 17.57V17.56ZM6.08008 17.94C5.94008 17.94 5.93008 17.8 5.83008 17.76C5.87008 17.68 6.11008 17.79 6.08008 17.94ZM8.17008 20.14C7.95008 20.08 8.03008 20.29 7.84008 20.25C8.04008 20.01 8.23008 19.75 8.58008 19.65C8.50008 19.86 8.21008 19.89 8.17008 20.14ZM8.72008 19.5C8.79008 19.38 8.95008 19.34 8.94008 19.16C9.06008 19.28 8.88008 19.5 8.72008 19.5ZM10.3901 17.19C10.9501 16.83 11.2801 16.27 12.1101 16.17C11.2601 16.61 10.6001 17.22 10.0301 17.92C9.87008 17.6 10.3901 17.51 10.3801 17.19H10.3901ZM9.68008 19.6C10.0601 19.08 10.9201 18.75 11.4001 18.48C10.9501 18.96 10.2501 19.22 9.68008 19.6ZM11.4201 17.72C11.8301 17.46 11.9601 16.94 12.6301 16.91C12.4101 17.35 11.9001 17.52 11.4201 17.72ZM12.4701 16.63C12.4701 16.63 12.4701 16.53 12.4701 16.49C12.5301 16.42 12.6801 16.43 12.8001 16.43C12.8701 16.48 12.8601 16.63 13.0001 16.61C12.8701 16.83 12.7301 16.56 12.4801 16.63H12.4701ZM15.1401 17.76C15.3801 17.9 15.5801 18.08 15.6001 18.46C15.3101 18.38 15.1801 18.12 15.1401 17.76ZM16.0401 18.82C16.3501 18.7 16.4901 19.19 16.7301 19.32C16.5001 19.36 16.3201 18.9 16.0401 18.82ZM17.1301 17.44C17.3301 17.41 17.2701 17.66 17.3301 17.77C17.1901 17.75 17.1101 17.65 17.1301 17.44ZM17.6401 18.18C17.7201 18.29 17.7701 18.44 17.8901 18.5C17.8101 18.58 17.6101 18.38 17.6401 18.18Z" fill="black"/>
<path fill-rule="evenodd" clip-rule="evenodd" d="M12.56 19.15C12.67 19.48 13.04 19.54 13.34 19.55C13.89 19.55 14.27 19.18 14.66 19.07C14.7 19.16 14.73 19.26 14.81 19.3C14.38 20.05 13.05 19.97 12.16 19.74C12.19 19.59 12.11 19.56 12.05 19.51C12.07 19.25 12.21 19.11 12.56 19.16V19.15Z" fill="black"/>
<path fill-rule="evenodd" clip-rule="evenodd" d="M18.0299 11.39C18.0799 11.52 18.1299 11.67 18.1899 11.79C18.2399 12.08 18.2199 12.39 18.1099 12.59C18.0399 12.77 17.8999 12.88 17.8499 13.08C17.5399 13.29 17.0899 13.58 16.6999 13.4C16.0299 13.46 15.8999 12.9 15.6699 12.46C15.5799 12.01 15.8099 11.79 15.8999 11.46C16.0599 11.22 16.2599 11.04 16.6299 10.96C16.8199 10.92 17.0299 10.89 17.2499 10.91C17.6299 10.95 17.7999 11.23 18.0299 11.39Z" fill="white"/>
<path fill-rule="evenodd" clip-rule="evenodd" d="M10.6301 12.08C10.6901 12.09 10.6701 12.03 10.7001 12.01C10.8401 12.17 10.7001 12.43 10.7701 12.48C10.7001 13.04 10.3901 13.36 10.0201 13.63C9.89006 13.63 9.90006 13.66 9.75006 13.66C9.66006 13.76 9.31006 13.76 9.21006 13.66C8.79006 13.63 8.52006 13.31 8.35006 12.93C8.20006 12.58 8.30006 12.25 8.52006 12.01C8.50006 11.94 8.56006 11.94 8.54006 11.88C8.91006 11.64 9.19006 11.19 9.85006 11.31C9.94006 11.31 9.85006 11.33 9.87006 11.38C9.99006 11.4 9.96006 11.28 10.0701 11.29V11.38C10.3301 11.52 10.5701 11.69 10.6801 11.98C10.7001 12.06 10.5701 11.99 10.6101 12.09L10.6301 12.08Z" fill="white"/>
<path fill-rule="evenodd" clip-rule="evenodd" d="M10.5599 12.24C10.5799 12.65 10.5999 13 10.3099 13.18C10.2599 13.21 9.94995 13.34 9.86995 13.34C9.58995 13.32 9.42995 13 9.24995 12.8C9.20995 12.32 9.50995 12.18 9.76995 11.99C10.1399 11.9 10.3299 12.12 10.5599 12.24Z" fill="#32428E"/>
<path fill-rule="evenodd" clip-rule="evenodd" d="M17.8099 11.77C17.8099 11.77 17.7699 11.79 17.7699 11.81C17.8099 11.83 17.8499 11.86 17.8999 11.87C18.2099 12.44 17.7799 13.15 17.2099 13.1C17.0399 13.09 16.9099 12.97 16.7299 12.93C16.5699 12.67 16.5199 12.03 16.8499 11.94C16.8199 11.85 16.8999 11.85 16.8899 11.79C17.1499 11.6 17.5399 11.54 17.8099 11.76V11.77Z" fill="#32428E"/>
<path fill-rule="evenodd" clip-rule="evenodd" d="M18.72 2.5C18.66 2.21 18.63 1.92 18.63 1.62C18.26 0.930002 17.68 0.360002 16.91 0.0200017C16.88 0.0200017 16.86 1.67824e-06 16.83 -0.00999832C16.82 -0.00999832 16.81 -0.00999832 16.8 -0.00999832C16.07 -0.00999832 15.31 0.0200017 14.6 0.0800017C12.66 0.240002 11.25 1.38 9.88998 2.05C9.45998 1.53 9.59998 0.800002 9.31998 0.200002C8.82998 0.520002 9.38998 1.67 9.54998 2.33C7.14998 4.44 4.76998 6.57 2.75998 9.06C2.69998 9.9 2.72998 10.6 3.32998 10.91C4.57998 10.8 5.20998 10.22 6.12998 9.85C6.71998 9.61 7.32998 9.4 7.90998 9.14C8.65998 8.81 9.37998 8.4 10.13 8.06C10.89 7.67 11.66 7.3 12.44 6.94C11.9 7.09 11.4 7.22 10.98 7.32C12.47 6.78 13.9 6.2 15.35 5.63C16.4 5.16 17.44 4.68 18.47 4.17C18.49 3.67 18.59 3.19 18.72 2.71C18.7 2.63 18.7 2.55 18.72 2.48V2.5ZM18.13 2.53C18.11 2.76 17.9 2.88 18.13 3.01C18.14 3.07 18.1 3.08 18.06 3.08C18 3.07 18 3.11 17.99 3.15C17.8 3.07 17.87 2.57 18.12 2.53H18.13ZM17.29 1.37C17.21 1.5 17.03 1.52 16.95 1.65C16.72 1.49 17.12 1.16 17.29 1.37ZM15.01 0.360002C14.43 0.680002 13.33 0.840002 12.75 0.930002C13.35 0.590002 14.12 0.420002 15.01 0.360002ZM10.31 4.19C10.26 4.37 9.99998 4.34 9.96998 4.54C9.78998 4.4 10.13 4.2 10.31 4.19ZM9.90998 5.29C9.55998 5.65 9.02998 5.83 8.67998 6.2C8.63998 5.73 9.37998 5.43 9.90998 5.29ZM8.79998 4.34C8.85998 4.72 7.79998 5.35 7.29998 5.66C7.60998 5.03 8.26998 4.75 8.79998 4.34ZM6.88998 5.87C6.86998 6.37 6.31998 6.35 6.13998 6.7C6.18998 6.5 6.52998 6 6.88998 5.87ZM4.58998 8.78C4.52998 8.92 4.38998 8.99 4.17998 8.99C4.13998 8.74 4.37998 8.78 4.58998 8.78ZM4.03998 8.51C4.17998 8.74 3.51998 9.06 3.77998 9.41C3.66998 9.58 3.48998 9.67 3.22998 9.69C3.33998 9.14 3.53998 8.68 4.03998 8.51ZM4.94998 10.01C4.43998 10.25 3.97998 10.66 3.23998 10.44C3.25998 10.23 3.01998 10.18 3.16998 10.03C4.04998 10.76 5.06998 9.75 5.83998 9.52C5.97998 9.69 5.31998 9.84 4.94998 10.01ZM5.26998 8.29C5.61998 7.68 6.52998 7.04 7.23998 6.55C6.86998 7.14 5.81998 7.65 5.26998 8.29ZM7.18998 8.54C7.27998 8.26 7.58998 8.21 7.86998 8.12C7.79998 8.41 7.48998 8.47 7.18998 8.54ZM7.30998 6.96C7.53998 6.69 7.86998 6.51 8.12998 6.26C8.20998 6.57 7.62998 6.81 7.30998 6.96ZM8.93998 5.02C9.02998 5.29 8.46998 5.51 8.18998 5.65C8.36998 5.37 8.72998 5.27 8.93998 5.02ZM9.10998 8.18C9.26998 7.84 9.72998 7.79 10.13 7.69C9.84998 7.92 9.45998 8.03 9.10998 8.18ZM8.33998 6.75C9.00998 6.19 9.72998 5.67 10.66 5.35C10.27 5.92 9.15998 6.37 8.33998 6.75ZM10.22 2.68C10.27 2.38 10.97 2.15 11.24 1.85C11.28 2.23 10.47 2.36 10.22 2.68ZM11.19 3.84C11.18 3.53 11.6 3.06 12 2.94C12.06 2.97 12.12 3 12.14 3.08C12.01 3.52 11.47 3.56 11.19 3.85V3.84ZM12.68 1.56C12.59 1.42 12.99 1.19 13.29 1.21C13.16 1.4 12.8 1.36 12.68 1.56ZM13.17 2.72C13.34 2.5 13.6 2.37 13.92 2.3C13.75 2.52 13.45 2.61 13.17 2.72ZM14.48 2.84C14.15 3.17 13.7 3.39 13.18 3.54C13.49 3.19 13.95 2.99 14.48 2.84ZM13 5.33C13.17 4.88 13.62 4.71 14.09 4.56C14.08 4.95 13.42 5.13 13 5.33ZM14.43 4.7C14.28 4.53 14.64 4.27 14.91 4.28C14.83 4.5 14.56 4.52 14.43 4.7ZM13.65 1.96C14.26 1.65 14.91 1.38 15.7 1.25C15.08 1.55 14.46 1.85 13.65 1.96ZM15.73 4.07C15.8 3.73 16.14 3.66 16.27 3.38C16.48 3.38 16.48 3.59 16.48 3.79C16.08 3.89 16.12 4 15.73 4.07ZM15.22 1.06C15.56 0.830002 16.03 0.720002 16.59 0.700002C16.37 1.05 15.71 0.970002 15.22 1.06ZM16.68 3.17C16.9 3.06 17.24 3.06 17.23 3.37C17 3.57 16.68 3.65 16.68 3.17ZM17.36 3.03C17.22 3.06 17.18 2.99 17.08 2.96C17.1 2.84 17.2 2.8 17.35 2.82V3.03H17.36ZM17.57 2.75V2.27C17.78 2.18 17.79 2.84 17.57 2.75ZM17.72 4.19C17.58 3.93 17.78 3.44 18.19 3.5C18.3 3.99 17.92 4 17.72 4.19Z" fill="#CA5747"/>
</svg>
